PathFileType	4	(X/Y/Z)	C:/Users/beibeiliu/ov580/test_trc\sequence.9_training_dense_right.trc
DataRate	CameraRate	NumFrames	NumMarkers	Units	OrigDataRate	OrigDataStartFrame	OrigNumFrames
120	120	18	19	mm	120	1	398
Frame#	Time	ThumbCMC			ThumbMCP			ThumbIP			ThumbTip			IndexMCP			IndexPIP			IndexTip			MiddleMCP			MiddlePIP			MiddleTip			RingMCP			RingPIP			RingTip			PinkyMCP			PinkyPIP			PinkyTip			BackHand1			BackHand2			BackHand3	
		X0	Y0	Z0	X1	Y1	Z1	X2	Y2	Z2	X3	Y3	Z3	X4	Y4	Z4	X5	Y5	Z5	X6	Y6	Z6	X7	Y7	Z7	X8	Y8	Z8	X9	Y9	Z9	X10	Y10	Z10	X11	Y11	Z11	X12	Y12	Z12	X13	Y13	Z13	X14	Y14	Z14	X15	Y15	Z15	X16	Y16	Z16	X17	Y17	Z17	X18	Y18	Z18	
0	0	189.074	-33.5833	10.0962	167.584	-39.7007	-6.36866	154.303	-41.2317	-25.0233	141.611	-41.028	-36.0562	197.508	-31.9426	-57.4429	193.231	-35.1502	-81.5029	186.138	-33.3133	-98.0958	225.802	-32.2362	-61.5238	224.414	-34.3723	-83.5967	231.404	-33.0889	-107.7	244.691	-37.9027	-52.4716	251.546	-39.8645	-72.6731	261.063	-38.8817	-91.2889	261.991	-44.3253	-35.5795	274.206	-47.5103	-46.5868	286.829	-45.2274	-54.7115	235.629	-24.2983	-11.9714	231.986	-15.958	14.2504	208.81	-17.5267	-1.50488	
1	0.00833333	186.591	-33.7309	5.14186	171.251	-41.0551	-5.97152	155.039	-41.391	-26.5744	139.376	-41.6587	-32.3722	197.096	-33.2522	-57.3891	190.489	-34.4886	-80.4016	188.844	-33.6535	-101.878	221.694	-32.66	-60.7906	223.953	-34.3139	-87.567	230.874	-32.0233	-109.482	242.663	-37.7885	-55.189	254.314	-40.759	-68.4614	259.165	-39.2094	-91.3763	260.405	-44.7183	-35.2551	274.597	-47.357	-47.5612	285.62	-45.1617	-60.7913	234.837	-25.3328	-11.7621	231.725	-17.5552	13.9872	207.958	-17.2921	-4.82279	
2	0.0166667	185.17	-33.5742	10.2903	170.801	-41.2788	-8.49779	153.443	-41.0976	-25.0923	140.997	-41.1969	-35.1214	197.141	-33.6831	-58.0483	189.811	-35.6717	-76.7351	189.309	-34.6831	-98.7711	221.987	-33.2602	-65.9961	223.187	-34.5507	-87.1954	230.942	-32.3786	-110.864	244.669	-38.3352	-53.1446	249.913	-40.8803	-69.9285	258.867	-40.5169	-90.39	260.929	-43.9719	-36.8668	272.126	-48.6398	-46.2015	282.351	-45.2793	-57.904	235.652	-25.5759	-12.9547	234.829	-17.3916	11.213	209.735	-17.0436	-3.42936	
3	0.025	183.999	-33.3463	7.25122	168.468	-40.311	-5.35756	153.364	-40.4707	-26.5467	137.999	-40.4595	-34.3748	194.662	-33.5947	-56.1349	188.95	-36.009	-81.1081	189.55	-34.7292	-100.566	225.076	-33.2445	-63.6518	226.397	-35.0516	-88.0355	231.957	-34.0655	-109.216	243.003	-37.2571	-55.4315	251.692	-39.799	-73.602	256.893	-40.4825	-91.8738	259.462	-44.1436	-36.335	268.885	-48.5741	-46.209	284.647	-44.6435	-60.6467	232.604	-23.8844	-13.7403	232.868	-19.2135	13.7943	205.98	-18.4478	-7.25146	
4	0.0333333	182.747	-32.5877	5.75548	169.09	-40.222	-6.8695	153.076	-39.9174	-25.2127	138.16	-39.8985	-35.5252	195.416	-33.2426	-60.1759	188.558	-35.0481	-78.0495	189.231	-35.123	-100.091	219.474	-32.7965	-60.94	223.354	-35.6468	-88.4963	227.486	-33.7734	-108.393	240.52	-38.6556	-51.037	248.333	-40.285	-75.3338	256.628	-39.2841	-93.319	258.714	-45.1761	-33.6781	271.207	-47.797	-50.2075	283.766	-45.9437	-61.8863	232.59	-24.8709	-10.6137	235.446	-17.7879	13.4376	210.734	-18.5183	-3.24202	
5	0.0416667	182.895	-34.0954	4.42185	170.497	-41.7431	-8.43709	155.456	-42.3198	-22.3222	140.108	-41.0594	-33.1184	192.12	-34.4322	-58.5236	191.949	-35.8489	-81.4171	182.371	-34.2921	-102.642	221.387	-33.4555	-61.3074	224.861	-35.2635	-85.0307	226.195	-34.474	-107.262	239.913	-38.5896	-55.093	249.75	-40.4118	-71.5205	252.816	-40.9606	-90.6378	261.179	-45.7161	-36.3449	267.174	-48.0561	-48.5571	285.065	-44.1397	-61.3136	236.366	-26.4971	-13.2174	232.177	-19.5223	10.1973	209.936	-19.4901	-7.49728	
6	0.05	184.19	-34.9889	5.1849	166.52	-40.2633	-6.55538	149.714	-39.9239	-23.6691	136.38	-40.4433	-30.4946	192.535	-34.2713	-59.1744	185.973	-35.5513	-81.4184	187.254	-34.8715	-102.479	217.757	-32.7325	-63.0787	221.55	-35.4132	-85.6476	226.293	-34.4632	-109.46	242.962	-38.0418	-54.1955	249.925	-40.4628	-71.6478	255.387	-40.3041	-89.6073	256.72	-44.6004	-35.659	271.232	-48.6759	-48.163	284.802	-44.5821	-61.8831	231.443	-24.2634	-11.2507	228.506	-18.9177	12.0346	206.414	-19.7258	-7.10167	
7	0.0583333	182.213	-34.7126	9.38137	166.188	-40.3354	-7.11241	150.657	-40.5299	-23.3196	135.457	-39.2725	-32.5971	189.973	-33.5374	-59.4953	188.684	-36.2645	-83.6066	184.401	-33.948	-104.632	219.542	-33.6339	-64.7514	221.539	-35.6927	-87.3009	229.369	-33.9377	-113.111	243.172	-38.669	-54.7072	250.828	-40.2053	-72.6546	252.235	-39.2066	-90.4624	256.009	-43.7599	-34.4553	266.195	-47.6509	-47.2137	282.787	-43.0533	-58.6375	230.575	-23.3579	-15.8558	228.405	-17.513	13.6637	203.215	-18.2641	-4.49877	
8	0.0666667	184.777	-34.9519	4.41206	166.052	-40.6	-6.79581	152.95	-41.1858	-22.4308	136.624	-40.559	-31.129	192.012	-33.9429	-60.8811	187.563	-34.9871	-81.5755	186.468	-34.2115	-99.9531	220.069	-32.7616	-63.2592	222.747	-35.483	-89.2313	225.818	-34.259	-107.314	238.763	-37.1155	-51.6465	246.542	-40.1093	-70.8189	254.71	-38.1718	-92.449	257.927	-43.8029	-35.157	266.878	-47.6729	-49.8207	281.725	-45.1823	-55.9854	234.713	-23.3799	-13.6316	231.933	-18.5489	11.0963	206.807	-19.0233	-3.19279	
9	0.075	182.222	-33.255	9.35371	165.338	-40.8091	-7.2217	151.438	-40.529	-21.918	135.572	-39.0628	-32.2695	193.905	-33.015	-60.8804	186.249	-35.9568	-77.7956	184.971	-34.4183	-102.475	216.769	-31.6672	-66.0518	221.705	-34.7327	-88.815	224.307	-32.6611	-107.948	239.534	-36.7917	-51.4525	245.186	-39.4837	-71.095	252.206	-38.1923	-91.3447	259.582	-43.9465	-34.0763	267.343	-46.7899	-48.3801	278.654	-41.8932	-59.6755	229.35	-25.3208	-11.2755	231.826	-19.3653	10.202	208.646	-16.8892	-2.41617	
10	0.0833333	184.964	-33.2561	5.77084	163.565	-38.9639	-9.13736	148.303	-40.4256	-23.1481	135.406	-39.7348	-34.242	191.898	-32.6192	-57.3097	185.65	-35.4991	-82.0281	187.912	-33.7958	-100.177	219.194	-32.6191	-65.2348	223.758	-34.1273	-84.96	226.631	-33.1976	-108.371	242.04	-36.8593	-54.9327	246.966	-38.7847	-71.6956	252.932	-38.0351	-91.1749	260.005	-44.4673	-34.2235	267.176	-46.4517	-48.7925	281.705	-40.6047	-61.5857	229.627	-24.4116	-10.082	230.33	-16.9104	13.4322	207.54	-19.0191	-2.32387	
11	0.0916667	183.577	-33.871	9.64487	169.198	-40.4469	-8.85061	149.19	-39.8667	-27.2054	133.215	-38.3293	-34.867	190.087	-33.2429	-60.0551	188.113	-34.9758	-81.9447	185.13	-33.4057	-103.096	216.404	-32.2402	-62.7926	222.353	-33.8268	-87.1859	223.554	-31.9573	-109.574	241.262	-36.0766	-54.8149	248.127	-38.9584	-71.7003	252.91	-37.8885	-94.0385	258.086	-43.021	-40.0399	270.479	-45.3538	-50.4675	282.945	-41.8243	-59.7063	232.458	-24.4353	-15.5535	230.014	-17.8576	11.316	203.959	-19.0413	-7.17912	
12	0.1	181.425	-32.7341	8.20643	168.002	-39.8001	-9.22596	151.898	-40.531	-22.9576	136.582	-38.5896	-32.3261	189.095	-31.742	-62.5152	188.446	-34.639	-81.9829	182.533	-33.6613	-98.7849	216.539	-31.3017	-68.1445	224.245	-34.4321	-89.7663	226.536	-32.5096	-110.023	240.372	-35.9322	-56.8183	250.409	-38.4382	-74.9081	251.479	-36.6395	-94.3183	260.221	-42.2033	-38.4733	268.118	-44.9352	-50.8837	280.739	-41.0824	-62.0979	230.611	-21.5934	-14.9992	229.858	-18.1446	10.167	204.285	-15.9415	-4.11229	
13	0.108333	185.665	-33.1312	5.03807	166.816	-39.896	-9.72586	152.812	-39.4543	-25.1703	137.072	-39.1547	-31.3262	193.634	-32.0177	-60.1376	190.064	-33.6969	-82.0703	183.917	-31.4846	-104.67	221.416	-30.7146	-63.3011	223.728	-33.1514	-85.8537	228.005	-31.0819	-112.385	243.682	-36.0188	-56.9372	244.577	-38.225	-74.4053	253.015	-37.3969	-90.334	259.671	-41.9894	-34.7965	270.765	-45.3622	-50.6981	278.144	-41.1849	-60.8925	230.253	-22.0639	-11.9294	230.333	-17.2888	8.96813	203.809	-15.538	-4.19703	
14	0.116667	183.647	-33.1001	5.08341	164.229	-39.2488	-6.91586	151.683	-39.3452	-24.641	133.785	-36.6681	-35.234	190.741	-30.9994	-63.4198	189.954	-34.0202	-84.4431	183.44	-32.2355	-102.061	217.176	-31.1057	-65.4393	224.142	-32.9663	-85.0325	226.727	-30.8595	-111.353	243.867	-35.9736	-54.9783	248.954	-37.2102	-76.4389	253.678	-36.3422	-95.247	258.404	-42.2334	-35.684	270.518	-44.6083	-45.7327	282.825	-39.9155	-61.3806	233.793	-22.8449	-12.9546	228.351	-16.4487	10.9241	205.102	-17.9623	-7.56644	
15	0.125	182.062	-31.7978	4.60514	166.437	-39.5121	-8.70659	150.746	-38.9353	-23.5454	136.873	-38.1191	-33.0029	190.519	-30.5952	-62.2683	187.127	-33.8056	-84.2156	182.487	-31.621	-102.393	218.952	-30.9828	-67.3113	220.417	-32.4311	-89.5856	224.589	-29.9289	-109.821	239.83	-35.0248	-57.0761	250.764	-37.1009	-70.9732	256.203	-36.1678	-92.6179	259.526	-41.8863	-35.8113	270.293	-45.0576	-46.8245	281.94	-40.2687	-60.2956	235.18	-21.4875	-11.7885	232.685	-16.0367	9.16904	205.648	-17.429	-3.96453	
16	0.133333	185.444	-33.3741	5.60942	165.076	-39.2355	-9.31906	152.09	-39.1374	-28.1118	135.331	-37.9218	-34.9394	190.951	-30.8272	-62.9423	186.328	-33.5414	-82.454	186.56	-31.3577	-105.085	218.051	-29.8376	-63.8054	221.104	-32.6008	-86.3508	230.203	-31.0227	-108.074	239.29	-35.2438	-52.1339	249.271	-37.4297	-74.4894	255.199	-35.5064	-93.7625	258.594	-41.4907	-33.1292	270.786	-45.131	-50.182	282.878	-40.18	-61.7398	232.943	-21.2292	-11.1421	231.871	-15.6388	13.0265	206.534	-17.8137	-2.77295	
17	0.141667	182.432	-31.9543	3.97007	167.346	-40.0648	-13.0751	150.322	-39.5797	-23.9393	136.957	-38.2612	-32.1126	193.907	-30.585	-63.6685	190.259	-32.9053	-83.3571	187.287	-32.3583	-102.865	221.789	-30.7072	-66.4144	224.788	-32.3262	-89.3497	227.192	-29.9067	-110.83	239.731	-34.4941	-55.6416	252.221	-37.2014	-75.5036	253.729	-35.9678	-92.3211	259.383	-41.0739	-37.8273	271.897	-44.3596	-49.706	284.444	-39.0165	-56.1984	234.246	-21.0923	-11.5524	231.113	-15.3934	14.6319	203.481	-17.4028	-3.57177	
